<svg width="41" height="41" viewBox="0 0 41 41" fill="none" xmlns="http://www.w3.org/2000/svg">
<path d="M20.5 41C31.8218 41 41 31.8218 41 20.5C41 9.17816 31.8218 0 20.5 0C9.17816 0 0 9.17816 0 20.5C0 31.8218 9.17816 41 20.5 41Z" fill="#7E5DF5"/>
<path d="M32.5811 13.746C31.7164 14.1233 30.8018 14.3743 29.8656 14.4913C30.8535 13.905 31.5922 12.9768 31.9415 11.8824C31.0162 12.4311 30.0039 12.8175 28.9483 13.0249C28.3013 12.3338 27.4613 11.8533 26.5376 11.6459C25.6139 11.4385 24.6491 11.5137 23.7687 11.8618C22.8883 12.2098 22.1329 12.8147 21.6008 13.5977C21.0686 14.3806 20.7843 15.3056 20.7847 16.2523C20.7811 16.614 20.8178 16.975 20.8943 17.3285C19.0169 17.2364 17.18 16.7492 15.5037 15.8986C13.8275 15.0479 12.3496 13.8531 11.1667 12.3923C10.5593 13.4306 10.3711 14.6616 10.6407 15.834C10.9102 17.0063 11.6171 18.0315 12.617 18.7003C11.87 18.6803 11.1387 18.4809 10.4848 18.119V18.1713C10.4861 19.2612 10.8628 20.3174 11.5516 21.162C12.2404 22.0067 13.1991 22.5882 14.2664 22.8088C13.8628 22.9154 13.4468 22.9678 13.0294 22.9647C12.7296 22.97 12.4302 22.9431 12.1363 22.8842C12.4412 23.821 13.0291 24.6401 13.8189 25.2289C14.6087 25.8177 15.5617 26.1472 16.5465 26.172C14.8757 27.4779 12.8155 28.1861 10.695 28.1835C10.3159 28.1867 9.93696 28.1656 9.56055 28.1201C11.7187 29.5118 14.234 30.2482 16.8019 30.2403C18.5692 30.2523 20.3213 29.9131 21.9563 29.2422C23.5914 28.5714 25.0769 27.5824 26.3265 26.3326C27.576 25.0828 28.5648 23.5972 29.2354 21.962C29.906 20.3269 30.245 18.5748 30.2327 16.8075C30.2327 16.5993 30.2257 16.3972 30.2156 16.197C31.1466 15.5306 31.9482 14.7 32.5811 13.746Z" fill="white"/>
</svg>
