<svg width="23" height="15" viewBox="0 0 23 15" fill="none" xmlns="http://www.w3.org/2000/svg">
<path d="M2.5 0C1.12109 0 0 1.12109 0 2.5V5C0 5.34375 0.289062 5.61328 0.613281 5.72656C1.34766 5.98047 1.875 6.67969 1.875 7.5C1.875 8.32031 1.34766 9.01953 0.613281 9.27344C0.289062 9.38672 0 9.65625 0 10V12.5C0 13.8789 1.12109 15 2.5 15H20C21.3789 15 22.5 13.8789 22.5 12.5V10C22.5 9.65625 22.2109 9.38672 21.8867 9.27344C21.1523 9.01953 20.625 8.32031 20.625 7.5C20.625 6.67969 21.1523 5.98047 21.8867 5.72656C22.2109 5.61328 22.5 5.34375 22.5 5V2.5C22.5 1.12109 21.3789 0 20 0H2.5ZM5 4.375V10.625C5 10.9688 5.28125 11.25 5.625 11.25H16.875C17.2188 11.25 17.5 10.9688 17.5 10.625V4.375C17.5 4.03125 17.2188 3.75 16.875 3.75H5.625C5.28125 3.75 5 4.03125 5 4.375ZM3.75 3.75C3.75 3.05859 4.30859 2.5 5 2.5H17.5C18.1914 2.5 18.75 3.05859 18.75 3.75V11.25C18.75 11.9414 18.1914 12.5 17.5 12.5H5C4.30859 12.5 3.75 11.9414 3.75 11.25V3.75Z" fill="#9333EA"/>
</svg>
