<svg width="20" height="19" viewBox="0 0 20 19" fill="none" xmlns="http://www.w3.org/2000/svg">
<path d="M5.58203 5.08158C8.01172 2.65189 11.9375 2.64017 14.3828 5.04252L12.7734 6.64798C12.5039 6.91752 12.4258 7.31986 12.5703 7.67142C12.7148 8.02298 13.0586 8.24955 13.4375 8.24955H18.1055H18.4375C18.957 8.24955 19.375 7.83158 19.375 7.31205V2.31205C19.375 1.93314 19.1484 1.58939 18.7969 1.44486C18.4453 1.30033 18.043 1.37845 17.7734 1.64798L16.1484 3.27298C12.7266 -0.105921 7.21484 -0.0942025 3.8125 3.31205C2.85938 4.26517 2.17188 5.38627 1.75 6.58548C1.51953 7.23783 1.86328 7.94877 2.51172 8.17923C3.16016 8.4097 3.875 8.06595 4.10547 7.41752C4.40625 6.56595 4.89453 5.76517 5.58203 5.08158ZM0.625 11.687V11.9839V12.0113V16.687C0.625 17.066 0.851562 17.4097 1.20312 17.5542C1.55469 17.6988 1.95703 17.6206 2.22656 17.3511L3.85156 15.7261C7.27344 19.105 12.7852 19.0933 16.1875 15.687C17.1406 14.7339 17.832 13.6128 18.2539 12.4175C18.4844 11.7652 18.1406 11.0542 17.4922 10.8238C16.8438 10.5933 16.1289 10.937 15.8984 11.5855C15.5977 12.437 15.1094 13.2378 14.4219 13.9214C11.9922 16.3511 8.06641 16.3628 5.62109 13.9605L7.22656 12.3511C7.49609 12.0816 7.57422 11.6792 7.42969 11.3277C7.28516 10.9761 6.94141 10.7495 6.5625 10.7495H1.89062H1.86328H1.5625C1.04297 10.7495 0.625 11.1675 0.625 11.687Z" fill="#2563EB"/>
</svg>
