<svg width="41" height="41" viewBox="0 0 41 41" fill="none" xmlns="http://www.w3.org/2000/svg">
<path d="M20.5 41C31.8218 41 41 31.8218 41 20.5C41 9.17816 31.8218 0 20.5 0C9.17816 0 0 9.17816 0 20.5C0 31.8218 9.17816 41 20.5 41Z" fill="#7E5DF5"/>
<path d="M24.9037 12.0773H27.3162V7.8735C26.1488 7.74538 24.975 7.68335 23.8005 7.68772C20.3219 7.68772 17.9375 9.87609 17.9375 13.8979V17.6007H14.0938V22.294H17.9375V34.1161H22.6448V22.294H26.3284L26.9127 17.5956H22.6422V14.3643C22.6422 13.0062 23.0087 12.0773 24.9011 12.0773H24.9037Z" fill="white"/>
</svg>
