<svg width="15" height="17" viewBox="0 0 15 17" fill="none" xmlns="http://www.w3.org/2000/svg">
<path d="M4.5 0.5C5.05312 0.5 5.5 0.946875 5.5 1.5V2.5H9.5V1.5C9.5 0.946875 9.94687 0.5 10.5 0.5C11.0531 0.5 11.5 0.946875 11.5 1.5V2.5H13C13.8281 2.5 14.5 3.17188 14.5 4V5.5H0.5V4C0.5 3.17188 1.17188 2.5 2 2.5H3.5V1.5C3.5 0.946875 3.94688 0.5 4.5 0.5ZM0.5 6.5H14.5V15C14.5 15.8281 13.8281 16.5 13 16.5H2C1.17188 16.5 0.5 15.8281 0.5 15V6.5ZM10.7812 10.0312C11.075 9.7375 11.075 9.2625 10.7812 8.97188C10.4875 8.68125 10.0125 8.67813 9.72188 8.97188L6.75313 11.9406L5.28438 10.4719C4.99063 10.1781 4.51562 10.1781 4.225 10.4719C3.93437 10.7656 3.93125 11.2406 4.225 11.5312L6.225 13.5312C6.51875 13.825 6.99375 13.825 7.28438 13.5312L10.7812 10.0312Z" fill="white"/>
</svg>
