<svg width="17" height="17" viewBox="0 0 17 17" fill="none" xmlns="http://www.w3.org/2000/svg">
<path d="M9.75 1.625C9.75 0.933594 9.19141 0.375 8.5 0.375C7.80859 0.375 7.25 0.933594 7.25 1.625V7.25H1.625C0.933594 7.25 0.375 7.80859 0.375 8.5C0.375 9.19141 0.933594 9.75 1.625 9.75H7.25V15.375C7.25 16.0664 7.80859 16.625 8.5 16.625C9.19141 16.625 9.75 16.0664 9.75 15.375V9.75H15.375C16.0664 9.75 16.625 9.19141 16.625 8.5C16.625 7.80859 16.0664 7.25 15.375 7.25H9.75V1.625Z" fill="#9CA3AF"/>
</svg>
