<svg width="48" height="48" viewBox="0 0 48 48" fill="none" xmlns="http://www.w3.org/2000/svg">
<path d="M40 0C44.4183 0 48 3.58172 48 8V40C48 44.4183 44.4183 48 40 48H8C3.58172 48 0 44.4183 0 40V8C5.15405e-07 3.58172 3.58172 0 8 0H40Z" fill="#FEF9C3"/>
<path d="M40 0C44.4183 0 48 3.58172 48 8V40C48 44.4183 44.4183 48 40 48H8C3.58172 48 0 44.4183 0 40V8C5.15405e-07 3.58172 3.58172 0 8 0H40Z" stroke="#E5E7EB"/>
<path d="M34 38H14V10H34V38Z" stroke="#E5E7EB"/>
<g clip-path="url(#clip0_379_21)">
<path d="M27.125 27.25C30.9219 27.25 34 24.1719 34 20.375C34 16.5781 30.9219 13.5 27.125 13.5C23.3281 13.5 20.25 16.5781 20.25 20.375C20.25 21.1055 20.3633 21.8125 20.5742 22.4727L14.2734 28.7734C14.0977 28.9492 14 29.1875 14 29.4375V32.5625C14 33.082 14.418 33.5 14.9375 33.5H18.0625C18.582 33.5 19 33.082 19 32.5625V31H20.5625C21.082 31 21.5 30.582 21.5 30.0625V28.5H23.0625C23.3125 28.5 23.5508 28.4023 23.7266 28.2266L25.0273 26.9258C25.6875 27.1367 26.3945 27.25 27.125 27.25ZM28.6875 17.25C29.1019 17.25 29.4993 17.4146 29.7924 17.7076C30.0854 18.0007 30.25 18.3981 30.25 18.8125C30.25 19.2269 30.0854 19.6243 29.7924 19.9174C29.4993 20.2104 29.1019 20.375 28.6875 20.375C28.2731 20.375 27.8757 20.2104 27.5826 19.9174C27.2896 19.6243 27.125 19.2269 27.125 18.8125C27.125 18.3981 27.2896 18.0007 27.5826 17.7076C27.8757 17.4146 28.2731 17.25 28.6875 17.25Z" fill="#CA8A04"/>
</g>
<defs>
<clipPath id="clip0_379_21">
<path d="M14 13.5H34V33.5H14V13.5Z" fill="white"/>
</clipPath>
</defs>
</svg>
