<svg width="20" height="21" viewBox="0 0 20 21" fill="none" xmlns="http://www.w3.org/2000/svg">
<path d="M0 3C0 1.62109 1.12109 0.5 2.5 0.5H8.75V5.5C8.75 6.19141 9.30859 6.75 10 6.75H15V12.375H6.875C5.49609 12.375 4.375 13.4961 4.375 14.875V20.5H2.5C1.12109 20.5 0 19.3789 0 18V3ZM15 5.5H10V0.5L15 5.5ZM6.875 14.25H8.125C9.33203 14.25 10.3125 15.2305 10.3125 16.4375C10.3125 17.6445 9.33203 18.625 8.125 18.625H7.5V19.875C7.5 20.2188 7.21875 20.5 6.875 20.5C6.53125 20.5 6.25 20.2188 6.25 19.875V18V14.875C6.25 14.5312 6.53125 14.25 6.875 14.25ZM8.125 17.375C8.64453 17.375 9.0625 16.957 9.0625 16.4375C9.0625 15.918 8.64453 15.5 8.125 15.5H7.5V17.375H8.125ZM11.875 14.25H13.125C14.1602 14.25 15 15.0898 15 16.125V18.625C15 19.6602 14.1602 20.5 13.125 20.5H11.875C11.5312 20.5 11.25 20.2188 11.25 19.875V14.875C11.25 14.5312 11.5312 14.25 11.875 14.25ZM13.125 19.25C13.4688 19.25 13.75 18.9688 13.75 18.625V16.125C13.75 15.7812 13.4688 15.5 13.125 15.5H12.5V19.25H13.125ZM16.25 14.875C16.25 14.5312 16.5312 14.25 16.875 14.25H18.75C19.0938 14.25 19.375 14.5312 19.375 14.875C19.375 15.2188 19.0938 15.5 18.75 15.5H17.5V16.75H18.75C19.0938 16.75 19.375 17.0312 19.375 17.375C19.375 17.7188 19.0938 18 18.75 18H17.5V19.875C17.5 20.2188 17.2188 20.5 16.875 20.5C16.5312 20.5 16.25 20.2188 16.25 19.875V17.375V14.875Z" fill="#DC2626"/>
</svg>
