<svg width="14" height="14" viewBox="0 0 14 14" fill="none" xmlns="http://www.w3.org/2000/svg">
<path d="M3 8C1.34375 8 0 9.34375 0 11C0 12.6562 1.34375 14 3 14C4.65625 14 6 12.6562 6 11C6 10.875 5.99375 10.75 5.97812 10.6281L8.91875 9.15938C9.45625 9.68125 10.1906 10 11 10C12.6562 10 14 8.65625 14 7C14 5.34375 12.6563 4 11 4C10.1906 4 9.45625 4.31875 8.91875 4.84062L5.97812 3.37187C5.99375 3.25 6 3.12813 6 3C6 1.34375 4.65625 0 3 0C1.34375 0 0 1.34375 0 3C0 4.65625 1.34375 6 3 6C3.80937 6 4.54375 5.68125 5.08125 5.15938L8.02187 6.62813C8.00625 6.75 8 6.87187 8 7C8 7.12813 8.00625 7.25 8.02187 7.37187L5.08125 8.84062C4.54375 8.31875 3.80937 8 3 8Z" fill="#16A34A"/>
</svg>
