<svg width="20" height="21" viewBox="0 0 20 21" fill="none" xmlns="http://www.w3.org/2000/svg">
<path d="M11.25 4.76953V14.25C11.25 14.9414 10.6914 15.5 10 15.5C9.30859 15.5 8.75 14.9414 8.75 14.25V4.76953L5.88281 7.63672C5.39453 8.125 4.60156 8.125 4.11328 7.63672C3.625 7.14844 3.625 6.35547 4.11328 5.86719L9.11328 0.867188C9.60156 0.378906 10.3945 0.378906 10.8828 0.867188L15.8828 5.86719C16.3711 6.35547 16.3711 7.14844 15.8828 7.63672C15.3945 8.125 14.6016 8.125 14.1133 7.63672L11.25 4.76953ZM2.5 14.25H7.5C7.5 15.6289 8.62109 16.75 10 16.75C11.3789 16.75 12.5 15.6289 12.5 14.25H17.5C18.8789 14.25 20 15.3711 20 16.75V18C20 19.3789 18.8789 20.5 17.5 20.5H2.5C1.12109 20.5 0 19.3789 0 18V16.75C0 15.3711 1.12109 14.25 2.5 14.25ZM16.875 18.3125C17.1236 18.3125 17.3621 18.2137 17.5379 18.0379C17.7137 17.8621 17.8125 17.6236 17.8125 17.375C17.8125 17.1264 17.7137 16.8879 17.5379 16.7121C17.3621 16.5363 17.1236 16.4375 16.875 16.4375C16.6264 16.4375 16.3879 16.5363 16.2121 16.7121C16.0363 16.8879 15.9375 17.1264 15.9375 17.375C15.9375 17.6236 16.0363 17.8621 16.2121 18.0379C16.3879 18.2137 16.6264 18.3125 16.875 18.3125Z" fill="#9CA3AF"/>
</svg>
