<svg width="14" height="15" viewBox="0 0 14 15" fill="none" xmlns="http://www.w3.org/2000/svg">
<path d="M7.875 3.73896V10.3753C7.875 10.8593 7.48398 11.2503 7 11.2503C6.51602 11.2503 6.125 10.8593 6.125 10.3753V3.73896L4.11797 5.746C3.77617 6.08779 3.22109 6.08779 2.8793 5.746C2.5375 5.4042 2.5375 4.84912 2.8793 4.50732L6.3793 1.00732C6.72109 0.665527 7.27617 0.665527 7.61797 1.00732L11.118 4.50732C11.4598 4.84912 11.4598 5.4042 11.118 5.746C10.7762 6.08779 10.2211 6.08779 9.8793 5.746L7.875 3.73896ZM1.75 10.3753H5.25C5.25 11.3405 6.03477 12.1253 7 12.1253C7.96523 12.1253 8.75 11.3405 8.75 10.3753H12.25C13.2152 10.3753 14 11.1601 14 12.1253V13.0003C14 13.9655 13.2152 14.7503 12.25 14.7503H1.75C0.784766 14.7503 0 13.9655 0 13.0003V12.1253C0 11.1601 0.784766 10.3753 1.75 10.3753ZM11.8125 13.219C11.9865 13.219 12.1535 13.1499 12.2765 13.0268C12.3996 12.9038 12.4688 12.7368 12.4688 12.5628C12.4688 12.3887 12.3996 12.2218 12.2765 12.0988C12.1535 11.9757 11.9865 11.9065 11.8125 11.9065C11.6385 11.9065 11.4715 11.9757 11.3485 12.0988C11.2254 12.2218 11.1562 12.3887 11.1562 12.5628C11.1562 12.7368 11.2254 12.9038 11.3485 13.0268C11.4715 13.1499 11.6385 13.219 11.8125 13.219Z" fill="white"/>
</svg>
