<svg width="13" height="12" viewBox="0 0 13 12" fill="none" xmlns="http://www.w3.org/2000/svg">
<path d="M7.45312 0.9375C7.45312 0.453516 7.06211 0.0625 6.57812 0.0625C6.09414 0.0625 5.70312 0.453516 5.70312 0.9375V4.875H1.76562C1.28164 4.875 0.890625 5.26602 0.890625 5.75C0.890625 6.23398 1.28164 6.625 1.76562 6.625H5.70312V10.5625C5.70312 11.0465 6.09414 11.4375 6.57812 11.4375C7.06211 11.4375 7.45312 11.0465 7.45312 10.5625V6.625H11.3906C11.8746 6.625 12.2656 6.23398 12.2656 5.75C12.2656 5.26602 11.8746 4.875 11.3906 4.875H7.45312V0.9375Z" fill="white"/>
</svg>
