<svg width="15" height="21" viewBox="0 0 15 21" fill="none" xmlns="http://www.w3.org/2000/svg">
<path d="M2.5 0.5C1.12109 0.5 0 1.62109 0 3V18C0 19.3789 1.12109 20.5 2.5 20.5H12.5C13.8789 20.5 15 19.3789 15 18V6.75H10C9.30859 6.75 8.75 6.19141 8.75 5.5V0.5H2.5ZM10 0.5V5.5H15L10 0.5ZM4.33594 10.543L5.38281 14.0273L6.61719 10.5C6.75 10.125 7.10547 9.87109 7.50391 9.87109C7.90234 9.87109 8.25781 10.1211 8.39062 10.5L9.625 14.0273L10.6641 10.543C10.8125 10.0469 11.3359 9.76562 11.832 9.91406C12.3281 10.0625 12.6094 10.5859 12.4609 11.082L10.5859 17.332C10.4688 17.7227 10.1172 17.9922 9.71094 18C9.30469 18.0078 8.9375 17.7578 8.80469 17.3711L7.5 13.6484L6.19922 17.3711C6.06641 17.7539 5.69922 18.0078 5.29297 18C4.88672 17.9922 4.53125 17.7227 4.41797 17.332L2.54297 11.082C2.39453 10.5859 2.67578 10.0625 3.17188 9.91406C3.66797 9.76562 4.19141 10.0469 4.33984 10.543H4.33594Z" fill="#2563EB"/>
</svg>
