<svg width="40" height="40" viewBox="0 0 40 40" fill="none" xmlns="http://www.w3.org/2000/svg">
<path d="M20 0C31.0457 0 40 8.95431 40 20C40 31.0457 31.0457 40 20 40C8.95431 40 0 31.0457 0 20C0 8.95431 8.95431 0 20 0Z" fill="#FEF9C3"/>
<path d="M20 0C31.0457 0 40 8.95431 40 20C40 31.0457 31.0457 40 20 40C8.95431 40 0 31.0457 0 20C0 8.95431 8.95431 0 20 0Z" stroke="#E5E7EB"/>
<path d="M28 32H12V8H28V32Z" stroke="#E5E7EB"/>
<g clip-path="url(#clip0_258_1470)">
<path d="M26.7375 11.6781C26.0531 10.9938 24.9469 10.9938 24.2625 11.6781L23.3219 12.6156L26.3813 15.675L27.3219 14.7344C28.0063 14.05 28.0063 12.9438 27.3219 12.2594L26.7375 11.6781ZM17.3875 18.5531C17.1969 18.7438 17.05 18.9781 16.9656 19.2375L16.0406 22.0125C15.95 22.2813 16.0219 22.5781 16.2219 22.7813C16.4219 22.9844 16.7188 23.0531 16.9906 22.9625L19.7656 22.0375C20.0219 21.9531 20.2562 21.8063 20.45 21.6156L25.6781 16.3844L22.6156 13.3219L17.3875 18.5531ZM15 13C13.3438 13 12 14.3438 12 16V24C12 25.6563 13.3438 27 15 27H23C24.6562 27 26 25.6563 26 24V21C26 20.4469 25.5531 20 25 20C24.4469 20 24 20.4469 24 21V24C24 24.5531 23.5531 25 23 25H15C14.4469 25 14 24.5531 14 24V16C14 15.4469 14.4469 15 15 15H18C18.5531 15 19 14.5531 19 14C19 13.4469 18.5531 13 18 13H15Z" fill="#CA8A04"/>
</g>
<defs>
<clipPath id="clip0_258_1470">
<path d="M12 11H28V27H12V11Z" fill="white"/>
</clipPath>
</defs>
</svg>
