<svg width="40" height="40" viewBox="0 0 40 40" fill="none" xmlns="http://www.w3.org/2000/svg">
<path d="M20 0C31.0457 0 40 8.95431 40 20C40 31.0457 31.0457 40 20 40C8.95431 40 0 31.0457 0 20C0 8.95431 8.95431 0 20 0Z" fill="#DBEAFE"/>
<path d="M20 0C31.0457 0 40 8.95431 40 20C40 31.0457 31.0457 40 20 40C8.95431 40 0 31.0457 0 20C0 8.95431 8.95431 0 20 0Z" stroke="#E5E7EB"/>
<path d="M28 32H12V8H28V32Z" stroke="#E5E7EB"/>
<g clip-path="url(#clip0_258_1461)">
<path d="M22.5 22C25.5375 22 28 19.5375 28 16.5C28 13.4625 25.5375 11 22.5 11C19.4625 11 17 13.4625 17 16.5C17 17.0844 17.0906 17.65 17.2594 18.1781L12.2188 23.2188C12.0781 23.3594 12 23.55 12 23.75V26.25C12 26.6656 12.3344 27 12.75 27H15.25C15.6656 27 16 26.6656 16 26.25V25H17.25C17.6656 25 18 24.6656 18 24.25V23H19.25C19.45 23 19.6406 22.9219 19.7812 22.7812L20.8219 21.7406C21.35 21.9094 21.9156 22 22.5 22ZM23.75 14C24.0815 14 24.3995 14.1317 24.6339 14.3661C24.8683 14.6005 25 14.9185 25 15.25C25 15.5815 24.8683 15.8995 24.6339 16.1339C24.3995 16.3683 24.0815 16.5 23.75 16.5C23.4185 16.5 23.1005 16.3683 22.8661 16.1339C22.6317 15.8995 22.5 15.5815 22.5 15.25C22.5 14.9185 22.6317 14.6005 22.8661 14.3661C23.1005 14.1317 23.4185 14 23.75 14Z" fill="#2563EB"/>
</g>
<defs>
<clipPath id="clip0_258_1461">
<path d="M12 11H28V27H12V11Z" fill="white"/>
</clipPath>
</defs>
</svg>
