<svg width="40" height="40" viewBox="0 0 40 40" fill="none" xmlns="http://www.w3.org/2000/svg">
<path d="M20 0C31.0457 0 40 8.95431 40 20C40 31.0457 31.0457 40 20 40C8.95431 40 0 31.0457 0 20C0 8.95431 8.95431 0 20 0Z" fill="#DCFCE7"/>
<path d="M20 0C31.0457 0 40 8.95431 40 20C40 31.0457 31.0457 40 20 40C8.95431 40 0 31.0457 0 20C0 8.95431 8.95431 0 20 0Z" stroke="#E5E7EB"/>
<path d="M30 32H10V8H30V32Z" stroke="#E5E7EB"/>
<g clip-path="url(#clip0_258_1452)">
<path d="M13 15C13 13.9391 13.4214 12.9217 14.1716 12.1716C14.9217 11.4214 15.9391 11 17 11C18.0609 11 19.0783 11.4214 19.8284 12.1716C20.5786 12.9217 21 13.9391 21 15C21 16.0609 20.5786 17.0783 19.8284 17.8284C19.0783 18.5786 18.0609 19 17 19C15.9391 19 14.9217 18.5786 14.1716 17.8284C13.4214 17.0783 13 16.0609 13 15ZM10 26.0719C10 22.9937 12.4938 20.5 15.5719 20.5H18.4281C21.5063 20.5 24 22.9937 24 26.0719C24 26.5844 23.5844 27 23.0719 27H10.9281C10.4156 27 10 26.5844 10 26.0719ZM25.75 20.75V18.75H23.75C23.3344 18.75 23 18.4156 23 18C23 17.5844 23.3344 17.25 23.75 17.25H25.75V15.25C25.75 14.8344 26.0844 14.5 26.5 14.5C26.9156 14.5 27.25 14.8344 27.25 15.25V17.25H29.25C29.6656 17.25 30 17.5844 30 18C30 18.4156 29.6656 18.75 29.25 18.75H27.25V20.75C27.25 21.1656 26.9156 21.5 26.5 21.5C26.0844 21.5 25.75 21.1656 25.75 20.75Z" fill="#16A34A"/>
</g>
<defs>
<clipPath id="clip0_258_1452">
<path d="M10 11H30V27H10V11Z" fill="white"/>
</clipPath>
</defs>
</svg>
