<svg width="16" height="13" viewBox="0 0 16 13" fill="none" xmlns="http://www.w3.org/2000/svg">
<path d="M0 1.875H15.75C15.75 0.909766 14.9652 0.125 14 0.125H1.75C0.784766 0.125 0 0.909766 0 1.875ZM0 2.75V10.625C0 11.5902 0.784766 12.375 1.75 12.375H14C14.9652 12.375 15.75 11.5902 15.75 10.625V2.75H0ZM1.75 10.3324C1.75 9.52578 2.40352 8.875 3.20742 8.875H6.41758C7.22422 8.875 7.875 9.52851 7.875 10.3324C7.875 10.4937 7.74375 10.625 7.58242 10.625H2.04258C1.88125 10.625 1.75 10.4937 1.75 10.3324ZM4.8125 4.5C5.27663 4.5 5.72175 4.68437 6.04994 5.01256C6.37813 5.34075 6.5625 5.78587 6.5625 6.25C6.5625 6.71413 6.37813 7.15925 6.04994 7.48744C5.72175 7.81563 5.27663 8 4.8125 8C4.34837 8 3.90325 7.81563 3.57506 7.48744C3.24687 7.15925 3.0625 6.71413 3.0625 6.25C3.0625 5.78587 3.24687 5.34075 3.57506 5.01256C3.90325 4.68437 4.34837 4.5 4.8125 4.5ZM9.625 4.9375C9.625 4.69688 9.82187 4.5 10.0625 4.5H13.5625C13.8031 4.5 14 4.69688 14 4.9375C14 5.17812 13.8031 5.375 13.5625 5.375H10.0625C9.82187 5.375 9.625 5.17812 9.625 4.9375ZM9.625 6.6875C9.625 6.44688 9.82187 6.25 10.0625 6.25H13.5625C13.8031 6.25 14 6.44688 14 6.6875C14 6.92812 13.8031 7.125 13.5625 7.125H10.0625C9.82187 7.125 9.625 6.92812 9.625 6.6875ZM9.625 8.4375C9.625 8.19687 9.82187 8 10.0625 8H13.5625C13.8031 8 14 8.19687 14 8.4375C14 8.67813 13.8031 8.875 13.5625 8.875H10.0625C9.82187 8.875 9.625 8.67813 9.625 8.4375Z" fill="#9CA3AF"/>
</svg>
