<svg width="16" height="15" viewBox="0 0 16 15" fill="none" xmlns="http://www.w3.org/2000/svg">
<path d="M9.19063 12.1906L5.35312 8.35313C5.12812 8.12813 5 7.81875 5 7.5C5 7.18125 5.12812 6.87188 5.35312 6.64688L9.19063 2.80937C9.39063 2.60938 9.65938 2.5 9.94063 2.5C10.525 2.5 11 2.975 11 3.55937L11 5.5H15C15.5531 5.5 16 5.94687 16 6.5V8.5C16 9.05312 15.5531 9.5 15 9.5H11V11.4406C11 12.025 10.525 12.5 9.94063 12.5C9.65938 12.5 9.39062 12.3875 9.19063 12.1906ZM5 2.5H3C2.44687 2.5 2 2.94687 2 3.5L2 11.5C2 12.0531 2.44687 12.5 3 12.5H5C5.55313 12.5 6 12.9469 6 13.5C6 14.0531 5.55313 14.5 5 14.5H3C1.34375 14.5 0 13.1562 0 11.5L0 3.5C0 1.84375 1.34375 0.5 3 0.5H5C5.55313 0.5 6 0.946875 6 1.5C6 2.05313 5.55313 2.5 5 2.5Z" fill="white"/>
</svg>
