<svg width="15" height="16" viewBox="0 0 15 16" fill="none" xmlns="http://www.w3.org/2000/svg">
<path d="M4.88125 0.553125L4.65625 1H1.65625C1.10312 1 0.65625 1.44687 0.65625 2C0.65625 2.55312 1.10312 3 1.65625 3H13.6562C14.2094 3 14.6562 2.55312 14.6562 2C14.6562 1.44687 14.2094 1 13.6562 1H10.6562L10.4312 0.553125C10.2625 0.2125 9.91563 0 9.5375 0H5.775C5.39687 0 5.05 0.2125 4.88125 0.553125ZM13.6562 4H1.65625L2.31875 14.5938C2.36875 15.3844 3.025 16 3.81562 16H11.4969C12.2875 16 12.9437 15.3844 12.9937 14.5938L13.6562 4Z" fill="#9CA3AF"/>
</svg>
