<svg width="15" height="15" viewBox="0 0 15 15" fill="none" xmlns="http://www.w3.org/2000/svg">
<path d="M13.1453 1.34365C12.5465 0.744824 11.5785 0.744824 10.9797 1.34365L10.1566 2.16396L12.8336 4.84092L13.6566 4.01787C14.2555 3.41904 14.2555 2.45107 13.6566 1.85225L13.1453 1.34365ZM4.96406 7.35928C4.79727 7.52607 4.66875 7.73115 4.59492 7.95811L3.78555 10.3862C3.70625 10.6214 3.76914 10.8812 3.94414 11.0589C4.11914 11.2366 4.37891 11.2968 4.6168 11.2175L7.04492 10.4081C7.26914 10.3343 7.47422 10.2058 7.64375 10.039L12.2184 5.46162L9.53867 2.78193L4.96406 7.35928ZM2.875 2.50029C1.42578 2.50029 0.25 3.67607 0.25 5.12529V12.1253C0.25 13.5745 1.42578 14.7503 2.875 14.7503H9.875C11.3242 14.7503 12.5 13.5745 12.5 12.1253V9.50029C12.5 9.01631 12.109 8.62529 11.625 8.62529C11.141 8.62529 10.75 9.01631 10.75 9.50029V12.1253C10.75 12.6093 10.359 13.0003 9.875 13.0003H2.875C2.39102 13.0003 2 12.6093 2 12.1253V5.12529C2 4.64131 2.39102 4.25029 2.875 4.25029H5.5C5.98398 4.25029 6.375 3.85928 6.375 3.37529C6.375 2.89131 5.98398 2.50029 5.5 2.50029H2.875Z" fill="#6366F1"/>
</svg>
