<svg width="17" height="16" viewBox="0 0 17 16" fill="none" xmlns="http://www.w3.org/2000/svg">
<path d="M15.3938 0.677344C14.7094 -0.00703126 13.6031 -0.00703126 12.9187 0.677344L11.9781 1.61484L15.0375 4.67422L15.9781 3.73359C16.6625 3.04922 16.6625 1.94297 15.9781 1.25859L15.3938 0.677344ZM6.04375 7.55234C5.85312 7.74297 5.70625 7.97734 5.62187 8.23672L4.69688 11.0117C4.60625 11.2805 4.67813 11.5773 4.87813 11.7805C5.07812 11.9836 5.375 12.0523 5.64687 11.9617L8.42188 11.0367C8.67813 10.9523 8.9125 10.8055 9.10625 10.6148L14.3344 5.38359L11.2719 2.32109L6.04375 7.55234ZM3.65625 1.99922C2 1.99922 0.65625 3.34297 0.65625 4.99922V12.9992C0.65625 14.6555 2 15.9992 3.65625 15.9992H11.6562C13.3125 15.9992 14.6562 14.6555 14.6562 12.9992V9.99922C14.6562 9.44609 14.2094 8.99922 13.6562 8.99922C13.1031 8.99922 12.6562 9.44609 12.6562 9.99922V12.9992C12.6562 13.5523 12.2094 13.9992 11.6562 13.9992H3.65625C3.10313 13.9992 2.65625 13.5523 2.65625 12.9992V4.99922C2.65625 4.44609 3.10313 3.99922 3.65625 3.99922H6.65625C7.20937 3.99922 7.65625 3.55234 7.65625 2.99922C7.65625 2.44609 7.20937 1.99922 6.65625 1.99922H3.65625Z" fill="#9CA3AF"/>
</svg>
