<svg width="41" height="41" viewBox="0 0 41 41" fill="none" xmlns="http://www.w3.org/2000/svg">
<path d="M20.5 41C31.8218 41 41 31.8218 41 20.5C41 9.17816 31.8218 0 20.5 0C9.17816 0 0 9.17816 0 20.5C0 31.8218 9.17816 41 20.5 41Z" fill="#7E5DF5"/>
<path d="M30.2559 27.6712V20.8116C30.2559 17.4556 29.5338 14.8711 25.6107 14.8711C24.8746 14.8432 24.1448 15.0156 23.4989 15.3698C22.853 15.724 22.3153 16.2468 21.9431 16.8824H21.8948V15.1838H18.1738V27.6702H22.0467V21.4874C22.0467 19.8592 22.3554 18.2853 24.3707 18.2853C26.3569 18.2853 26.3821 20.1428 26.3821 21.592V27.6712H30.2559Z" fill="white"/>
<path d="M11.8652 15.1846H15.7391V27.6709H11.8652V15.1846Z" fill="white"/>
<path d="M13.8029 8.96878C13.3556 8.96659 12.9178 9.09736 12.545 9.34449C12.1722 9.59162 11.8812 9.94396 11.7091 10.3568C11.5369 10.7696 11.4913 11.2242 11.578 11.663C11.6647 12.1018 11.8799 12.5049 12.1961 12.8212C12.5124 13.1375 12.9155 13.3526 13.3543 13.4394C13.7931 13.5261 14.2478 13.4805 14.6606 13.3083C15.0734 13.1361 15.4257 12.8452 15.6729 12.4723C15.92 12.0995 16.0508 11.6617 16.0486 11.2144C16.0483 10.6189 15.8116 10.0479 15.3905 9.62681C14.9695 9.20572 14.3984 8.96904 13.8029 8.96878Z" fill="white"/>
</svg>
