<svg width="17" height="11" viewBox="0 0 17 11" fill="none" xmlns="http://www.w3.org/2000/svg">
<path fill-rule="evenodd" clip-rule="evenodd" d="M1.10577 1.17468C1.32782 0.961047 1.62561 0.844308 1.93369 0.850121C2.24177 0.855934 2.53494 0.983823 2.74877 1.20568L8.49927 7.30958L14.2498 1.20568C14.3543 1.09045 14.4809 0.997369 14.6221 0.931958C14.7632 0.866546 14.9161 0.830135 15.0716 0.824882C15.227 0.819628 15.382 0.845638 15.5273 0.901372C15.6725 0.957107 15.8051 1.04143 15.9172 1.14935C16.0292 1.25726 16.1185 1.38658 16.1797 1.52962C16.2408 1.67267 16.2727 1.82654 16.2733 1.98212C16.2739 2.1377 16.2433 2.29182 16.1833 2.43534C16.1232 2.57887 16.035 2.70889 15.9238 2.81768L9.33627 9.79269C9.22783 9.90519 9.09782 9.99468 8.954 10.0558C8.81019 10.1169 8.65553 10.1484 8.49927 10.1484C8.34301 10.1484 8.18835 10.1169 8.04454 10.0558C7.90072 9.99468 7.77071 9.90519 7.66227 9.79269L1.07477 2.81768C0.861133 2.59563 0.744394 2.29785 0.750207 1.98977C0.75602 1.68169 0.883909 1.38852 1.10577 1.17468Z" fill="#374151"/>
</svg>
