<svg width="16" height="13" viewBox="0 0 16 13" fill="none" xmlns="http://www.w3.org/2000/svg">
<path d="M8.12432 0.625C5.91494 0.625 4.1458 1.63125 2.85791 2.82891C1.57822 4.01562 0.722363 5.4375 0.317676 6.41367C0.227441 6.62969 0.227441 6.87031 0.317676 7.08633C0.722363 8.0625 1.57822 9.48438 2.85791 10.6711C4.1458 11.8687 5.91494 12.875 8.12432 12.875C10.3337 12.875 12.1028 11.8687 13.3907 10.6711C14.6704 9.48164 15.5263 8.0625 15.9337 7.08633C16.0239 6.87031 16.0239 6.62969 15.9337 6.41367C15.5263 5.4375 14.6704 4.01562 13.3907 2.82891C12.1028 1.63125 10.3337 0.625 8.12432 0.625ZM4.18682 6.75C4.18682 5.70571 4.60166 4.70419 5.34008 3.96577C6.07851 3.22734 7.08003 2.8125 8.12432 2.8125C9.16861 2.8125 10.1701 3.22734 10.9085 3.96577C11.647 4.70419 12.0618 5.70571 12.0618 6.75C12.0618 7.79429 11.647 8.79581 10.9085 9.53423C10.1701 10.2727 9.16861 10.6875 8.12432 10.6875C7.08003 10.6875 6.07851 10.2727 5.34008 9.53423C4.60166 8.79581 4.18682 7.79429 4.18682 6.75ZM8.12432 5C8.12432 5.96523 7.33955 6.75 6.37432 6.75C6.18018 6.75 5.99424 6.71719 5.81924 6.65977C5.66885 6.61055 5.49385 6.70352 5.49932 6.86211C5.50752 7.05078 5.53486 7.23945 5.58682 7.42812C5.96143 8.82812 7.40244 9.65938 8.80244 9.28477C10.2024 8.91016 11.0337 7.46914 10.6591 6.06914C10.3556 4.93438 9.35205 4.17148 8.23643 4.125C8.07783 4.11953 7.98486 4.2918 8.03408 4.44492C8.0915 4.61992 8.12432 4.80586 8.12432 5Z" fill="#6366F1"/>
</svg>
